<svg xmlns="http://www.w3.org/2000/svg" width="14" height="14" fill="none"><circle cx="7" cy="7" r="6.95" fill="#FF9A00" stroke="#6A737D" stroke-width=".1"/><path fill="#F2F0F0" stroke="#6A737D" stroke-width=".1" d="m1.745 5.462-.044-.022c-.235.466-.351 1.002-.351 1.607 0 .603.114 1.138.343 1.604.232.463.562.827.99 1.09v.001c.431.264.946.395 1.542.395.5 0 .937-.09 1.311-.274.374-.185.67-.442.887-.77.218-.33.343-.707.377-1.132l.004-.054H5.381l-.008.04c-.04.207-.113.38-.217.521-.106.142-.236.25-.393.327-.153.073-.328.11-.527.11-.28 0-.52-.074-.726-.221a1.462 1.462 0 0 1-.479-.642c-.114-.282-.172-.62-.172-1.018 0-.391.058-.725.172-1.001.117-.277.28-.486.486-.631.206-.147.445-.221.72-.221.324 0 .578.092.767.274.194.182.317.409.369.683l.008.04h1.423L6.8 6.116a2.24 2.24 0 0 0-.385-1.138 2.22 2.22 0 0 0-.906-.757 2.956 2.956 0 0 0-1.292-.27c-.583 0-1.092.131-1.523.395-.428.26-.759.626-.993 1.095l.044.022Zm0 0c-.23.458-.345.987-.345 1.585 0 .596.113 1.124.338 1.582m.007-3.167L1.738 8.63m0 0c.227.455.551.812.97 1.07.423.259.928.388 1.517.388.494 0 .923-.09 1.29-.269l-3.777-1.19Zm10.71-4.535.023-.067h-1.585l-.011.035-1.342 4.324-1.338-4.324-.01-.035H6.595l.023.067 2.1 5.895.011.033H10.336l.012-.033 2.1-5.895Z"/></svg>