<svg xmlns="http://www.w3.org/2000/svg" width="200" height="200" fill="none"><path fill="#F2F2F2" stroke="#FF9A00" d="M10 .778h180c5.237 0 9.5 4.263 9.5 9.5v140c0 5.238-4.263 9.5-9.5 9.5H10c-5.237 0-9.5-4.262-9.5-9.5v-140c0-5.237 4.263-9.5 9.5-9.5Z"/><path fill="#EFEFEF" stroke="#FF9A00" d="M6.167 16.945v140c0 .723.094 1.413.243 2.076-3.46-1.419-5.91-4.785-5.91-8.743v-140c0-5.237 4.263-9.5 9.5-9.5h180c3.958 0 7.324 2.45 8.742 5.91a9.392 9.392 0 0 0-2.075-.243h-180c-5.79 0-10.5 4.71-10.5 10.5Z"/><path fill="#FF9A00" d="M183.333 143.612h-40c-1.843 0-3.333.936-3.333 2.776v50c0 1.23.677 2.36 1.76 2.94 1.08.58 2.4.514 3.42-.166l18.153-12.1 18.15 12.1a3.333 3.333 0 0 0 5.184-2.774v-50c0-1.84-1.49-2.776-3.334-2.776Z"/><path fill="#FDC163" stroke="#FF9A00" stroke-width="5" d="M163.233 85.155c-18.784 0-34.066 15.273-34.066 34.033 0 18.783 15.284 34.067 34.066 34.067 18.783 0 34.07-15.284 34.07-34.066l-34.07-34.034Zm0 0c18.785 0 34.067 15.273 34.07 34.033l-34.07-34.033Z"/><path fill="#181820" fill-opacity=".88" stroke="#181820" stroke-width=".6" d="m147.396 102.281.168.249-.168-.249c-.357.241-.885.722-1.418 1.263-.538.545-1.1 1.171-1.525 1.717-2.754 3.533-4.259 7.235-4.684 11.53-.091.919-.092 3.393-.002 4.381.463 5.095 2.04 9.204 4.948 12.866.714.9 1.398 1.636 2.022 2.177.616.534 1.199.902 1.711 1.024l.009.002c.135.032.252.06.371.059.122-.001.234-.033.362-.068l.008-.002c.632-.176 1.088-.751 1.088-1.402 0-.335-.107-.634-.365-1.005-.25-.359-.657-.809-1.281-1.452-1.412-1.454-2.109-2.347-2.943-3.765a17.728 17.728 0 0 1-1.849-4.316c-.514-1.785-.748-3.39-.81-5.58-.115-4.101.691-7.384 2.567-10.505.824-1.373 1.567-2.301 3.203-3.99.586-.605.963-1.025 1.185-1.363.233-.356.309-.645.272-.975a1.065 1.065 0 0 0-.117-.415 1.336 1.336 0 0 0-.295-.338c-.331-.294-.698-.446-1.131-.409-.412.036-.844.241-1.326.566Zm36.304 29.523.234.188-.234-.188c-.31.387-1.08 1.24-1.71 1.892-.64.663-1.049 1.117-1.285 1.47-.246.368-.33.667-.268 1 .024.126.086.249.151.352.068.107.152.215.242.311.09.097.191.189.292.263a.94.94 0 0 0 .343.168c.181.038.404.03.611-.001.212-.032.437-.092.628-.177.352-.155.758-.443 1.185-.811.43-.371.896-.836 1.368-1.361a24.84 24.84 0 0 0 2.701-3.632c2.254-3.727 3.331-8.225 3.036-12.667-.345-5.208-1.785-9.326-4.584-13.068-1.373-1.837-2.591-3.073-3.572-3.561-.398-.198-.766-.308-1.113-.277-.362.032-.654.212-.902.494-.173.197-.3.401-.36.632a1.35 1.35 0 0 0 .019.707c.07.262.206.508.456.827.247.315.618.718 1.176 1.293 1.643 1.693 2.608 3.043 3.545 4.951.979 1.996 1.544 3.892 1.851 6.218.146 1.102.2 4.079.096 5.222-.34 3.719-1.613 6.896-3.906 9.755Zm-5.141 2.824.08-.001.069-.039.288-.165c.66-.378.995-1.148.834-1.896a1.743 1.743 0 0 0-.453-.814 1.713 1.713 0 0 0-.794-.484.852.852 0 0 0-.165-.019c-.061-.004-.144-.007-.244-.011-.2-.006-.479-.012-.824-.017-.691-.011-1.653-.02-2.794-.027-2.284-.014-5.29-.022-8.296-.022-3.006 0-6.012.008-8.295.022-1.142.007-2.104.016-2.794.027-.346.005-.625.011-.825.017-.1.004-.182.007-.244.011a.852.852 0 0 0-.165.019c-.293.073-.569.257-.784.477-.215.22-.392.501-.464.797a1.74 1.74 0 0 0 1.203 2.078l.087-.287-.087.287c.031.01.06.012.062.013l.03.002.066.004.21.005c.176.004.43.007.751.01.642.006 1.559.012 2.681.016 2.245.008 5.316.011 8.67.008l12.197-.011Zm-14.562-5.542a.704.704 0 0 0 .484-.16.618.618 0 0 0 .211-.474.659.659 0 0 0-.025-.196.462.462 0 0 0-.141-.218.788.788 0 0 0-.19-.117 3.915 3.915 0 0 0-.23-.092c-.671-.251-1.161-.64-1.588-1.269-.563-.829-.806-1.607-.863-2.821a6.35 6.35 0 0 1-.009-.753c.012-.155.039-.276.099-.47.243-.799.62-1.296 1.958-2.432 1.03-.874 1.375-1.254 1.67-1.925a3.302 3.302 0 0 0 .274-1.629c-.051-.518-.245-1.007-.602-1.341l-.013-.012c.064.018.145.05.243.103.159.086.337.214.518.373.363.319.709.739.913 1.142.118.233.157.319.178.428.023.122.025.279.022.655a19.82 19.82 0 0 1-.058 1.342c-.051.577.004 1.078.197 1.475.199.409.533.683.977.812a2.102 2.102 0 0 0 1.522-.145c.426-.219.787-.616.787-1.132 0-.098-.02-.24-.045-.378a5.586 5.586 0 0 0-.103-.455l-.081-.303c.147.146.301.331.428.527.727 1.114.946 2.885.512 4.137-.281.812-.768 1.543-1.77 2.608-.17.18-.308.333-.412.463a1.487 1.487 0 0 0-.235.376.559.559 0 0 0-.001.436.774.774 0 0 0 .246.292c.159.126.339.214.578.192.202-.019.419-.116.668-.245.586-.306 1.268-.817 1.891-1.385.624-.568 1.207-1.21 1.592-1.787a9.4 9.4 0 0 0 1.392-3.474c.188-1.009.17-2.9-.035-4.049-.391-2.193-1.211-3.779-2.837-5.507a11.71 11.71 0 0 0-1.078-1.001 6.867 6.867 0 0 0-.491-.37 1.508 1.508 0 0 0-.408-.212c-.145-.039-.317-.068-.471-.024a.453.453 0 0 0-.338.413c-.016.153.027.322.084.485.06.172.152.377.271.613.572 1.14.613 1.69.415 2.041a.654.654 0 0 1-.232.251.967.967 0 0 1-.399.12.5.5 0 0 1-.334-.06c-.092-.057-.196-.166-.304-.374-.222-.426-.413-1.163-.611-2.351-.358-2.145-.576-2.933-1.125-3.954-.714-1.328-1.811-2.336-3.283-3.033a7.173 7.173 0 0 0-1.926-.608 3.582 3.582 0 0 0-.824-.042c-.242.019-.478.075-.662.196a.72.72 0 0 0-.269.296.566.566 0 0 0-.029.406c.073.249.296.436.545.565.03.015.098.064.201.161.098.09.21.207.325.337.233.262.462.561.599.791.389.657.515 1.144.505 2.009-.011.901-.176 1.535-.709 2.647-.402.84-.631 1.232-2.027 3.464-1.875 2.996-2.535 4.559-2.535 6.226-.001 1.211.322 2.555.879 3.667 1.003 2.005 2.952 3.659 5.28 4.505.172.063.344.121.482.163.07.021.133.04.185.053.04.01.106.027.162.028Z"/><path fill="#FF9A00" d="M56.537 117.682a3.339 3.339 0 0 0-2.694-2.27l-11.133-1.614-4.99-10.096a3.33 3.33 0 0 0-2.987-1.857h-.003c-1.27 0-2.43.723-2.987 1.863l-4.956 10.09-11.134 1.614a3.339 3.339 0 0 0-2.693 2.27 3.327 3.327 0 0 0 .843 3.416l8.047 7.847-1.9 11.07a3.335 3.335 0 0 0 3.283 3.897c.53 0 1.06-.127 1.55-.38l9.95-5.224 9.987 5.224a3.332 3.332 0 0 0 4.827-3.52l-1.9-11.074 8.043-7.843a3.321 3.321 0 0 0 .847-3.413Z"/><path fill="#FDC163" d="M109.87 117.682a3.339 3.339 0 0 0-2.693-2.27l-11.134-1.614-4.99-10.096a3.33 3.33 0 0 0-2.986-1.857h-.004c-1.27 0-2.43.723-2.986 1.863l-4.957 10.09-11.13 1.614a3.339 3.339 0 0 0-2.693 2.27 3.327 3.327 0 0 0 .843 3.416l8.047 7.847-1.9 11.07a3.335 3.335 0 0 0 3.283 3.897c.53 0 1.06-.127 1.55-.38l9.95-5.224 9.987 5.224a3.33 3.33 0 0 0 4.826-3.52l-1.9-11.074 8.044-7.843a3.335 3.335 0 0 0 .843-3.413Z"/><path fill="#CCC" d="M176.667 50.278h-53.334A3.332 3.332 0 0 1 120 46.945c0-1.84 1.49-3.333 3.333-3.333h53.334A3.332 3.332 0 0 1 180 46.945c0 1.84-1.49 3.333-3.333 3.333Z"/><mask id="a" width="12" height="13" x="48.825" y="20.6" fill="#000" maskUnits="userSpaceOnUse"><path fill="#fff" d="M48.825 20.6h12v13h-12z"/><path d="m55.516 21.633.359.042.35.067.325.075.308.1.3.116.267.134.258.15.233.175.225.183.2.2.184.225.166.233.15.259.134.275.108.291.1.309.075.325.067.341.041.367.025.375.009.392v.191l-.009.084-.033.166-.033.15-.025.067-.059.125-.033.05-.042.05-.033.05-.05.042-.042.041-.05.025-.05.034-.058.025-.067.016-.058.017-.133.017h-7.417v-.059h-.017v1.534l.009.2.025.2.025.191.05.183.058.167.075.167.083.142.1.15.109.124.125.134.141.108.15.108.167.092.175.092.192.075.2.075.225.05.225.058.25.042.258.025.267.025.283.017.3.008h.108l.109-.008h.108l.1-.009h.108l.2-.017.192-.016.092-.008.091-.017.175-.025.084-.009.083-.016.242-.05.075-.025.075-.017.066-.025.075-.025.067-.025.042-.008.125-.05.05-.025.05-.017.1-.05.175-.091.066-.034.059-.041.141-.075.067-.042.075-.042.075-.05.158-.108.084-.05.083-.059.092-.058.1-.1.108-.083.05-.042.042-.033.05-.034.041-.041.075-.058.084-.05.033-.026.033-.016.034-.025.058-.025.025-.008.033-.009.017-.008.042-.009h.075l.083.009.125.025.033.017.059.033.033.025.075.075.025.033.033.067.009.041.016.042.009.05.016.084v.166l-.008.059-.008.05-.009.058-.05.166-.025.05-.033.059-.025.058-.033.059-.042.058-.042.05-.083.116-.108.109-.109.116-.133.117-.075.05-.067.067-.125.083-.125.092-.266.166-.142.075-.15.075-.15.067-.158.058-.159.067-.175.058-.35.1-.183.042-.192.042-.391.075-.417.05-.433.033-.225.008-.234.009h-.633l-.392-.025-.375-.033-.35-.059-.341-.058-.317-.075-.3-.092-.283-.108-.259-.125-.25-.134-.225-.15-.216-.166-.184-.175-.175-.192-.158-.208-.133-.217-.117-.242-.108-.241-.084-.267-.058-.283-.05-.292-.025-.308-.008-.325v-3.925l.008-.117.008-.1.009-.108.033-.217.033-.108.025-.1.067-.2.083-.2.1-.192.05-.091.059-.1.066-.084.067-.091.067-.084.075-.091.158-.167.192-.192.25-.2.125-.091.141-.092.142-.083.142-.075.15-.075.316-.134.167-.058.35-.1.183-.042.192-.041.183-.034.2-.025.2-.033.2-.017.209-.016.433-.017h.225l.392.008.391.025Zm-1.7 1.334-.341.058-.325.083-.317.109-.308.125-.292.15-.267.208-.225.217-.191.233-.159.25-.108.258-.067.267-.025.292v.8h6.825l-.075-.817-.208-.692-.358-.575-.5-.441-.634-.317-.791-.192-.925-.058-.359.008-.35.034Z"/></mask><path fill="#181820" d="m55.516 21.633.359.042.35.067.325.075.308.1.3.116.267.134.258.15.233.175.225.183.2.2.184.225.166.233.15.259.134.275.108.291.1.309.075.325.067.341.041.367.025.375.009.392v.191l-.009.084-.033.166-.033.15-.025.067-.059.125-.033.05-.042.05-.033.05-.05.042-.042.041-.05.025-.05.034-.058.025-.067.016-.058.017-.133.017h-7.417v-.059h-.017v1.534l.009.2.025.2.025.191.05.183.058.167.075.167.083.142.1.15.109.124.125.134.141.108.15.108.167.092.175.092.192.075.2.075.225.05.225.058.25.042.258.025.267.025.283.017.3.008h.108l.109-.008h.108l.1-.009h.108l.2-.017.192-.016.092-.008.091-.017.175-.025.084-.009.083-.016.242-.05.075-.025.075-.017.066-.025.075-.025.067-.025.042-.008.125-.05.05-.025.05-.017.1-.05.175-.091.066-.034.059-.041.141-.075.067-.042.075-.042.075-.05.158-.108.084-.05.083-.059.092-.058.1-.1.108-.083.05-.042.042-.033.05-.034.041-.041.075-.058.084-.05.033-.026.033-.016.034-.025.058-.025.025-.008.033-.009.017-.008.042-.009h.075l.083.009.125.025.033.017.059.033.033.025.075.075.025.033.033.067.009.041.016.042.009.05.016.084v.166l-.008.059-.008.05-.009.058-.05.166-.025.05-.033.059-.025.058-.033.059-.042.058-.042.05-.083.116-.108.109-.109.116-.133.117-.075.05-.067.067-.125.083-.125.092-.266.166-.142.075-.15.075-.15.067-.158.058-.159.067-.175.058-.35.1-.183.042-.192.042-.391.075-.417.05-.433.033-.225.008-.234.009h-.633l-.392-.025-.375-.033-.35-.059-.341-.058-.317-.075-.3-.092-.283-.108-.259-.125-.25-.134-.225-.15-.216-.166-.184-.175-.175-.192-.158-.208-.133-.217-.117-.242-.108-.241-.084-.267-.058-.283-.05-.292-.025-.308-.008-.325v-3.925l.008-.117.008-.1.009-.108.033-.217.033-.108.025-.1.067-.2.083-.2.1-.192.05-.091.059-.1.066-.084.067-.091.067-.084.075-.091.158-.167.192-.192.25-.2.125-.091.141-.092.142-.083.142-.075.15-.075.316-.134.167-.058.35-.1.183-.042.192-.041.183-.034.2-.025.2-.033.2-.017.209-.016.433-.017h.225l.392.008.391.025Zm-1.7 1.334-.341.058-.325.083-.317.109-.308.125-.292.15-.267.208-.225.217-.191.233-.159.25-.108.258-.067.267-.025.292v.8h6.825l-.075-.817-.208-.692-.358-.575-.5-.441-.634-.317-.791-.192-.925-.058-.359.008-.35.034Z"/><path stroke="#181820" d="m55.516 21.633.359.042.35.067.325.075.308.1.3.116.267.134.258.15.233.175.225.183.2.2.184.225.166.233.15.259.134.275.108.291.1.309.075.325.067.341.041.367.025.375.009.392v.191l-.009.084-.033.166-.033.15-.025.067-.059.125-.033.05-.042.05-.033.05-.05.042-.042.041-.05.025-.05.034-.058.025-.067.016-.058.017-.133.017h-7.417v-.059h-.017v1.534l.009.2.025.2.025.191.05.183.058.167.075.167.083.142.1.15.109.124.125.134.141.108.15.108.167.092.175.092.192.075.2.075.225.05.225.058.25.042.258.025.267.025.283.017.3.008h.108l.109-.008h.108l.1-.009h.108l.2-.017.192-.016.092-.008.091-.017.175-.025.084-.009.083-.016.242-.05.075-.025.075-.017.066-.025.075-.025.067-.025.042-.008.125-.05.05-.025.05-.017.1-.05.175-.091.066-.034.059-.041.141-.075.067-.042.075-.042.075-.05.158-.108.084-.05.083-.059.092-.058.1-.1.108-.083.05-.042.042-.033.05-.034.041-.041.075-.058.084-.05.033-.026.033-.016.034-.025.058-.025.025-.008.033-.009.017-.008.042-.009h.075l.083.009.125.025.033.017.059.033.033.025.075.075.025.033.033.067.009.041.016.042.009.05.016.084v.166l-.008.059-.008.05-.009.058-.05.166-.025.05-.033.059-.025.058-.033.059-.042.058-.042.05-.083.116-.108.109-.109.116-.133.117-.075.05-.067.067-.125.083-.125.092-.266.166-.142.075-.15.075-.15.067-.158.058-.159.067-.175.058-.35.1-.183.042-.192.042-.391.075-.417.05-.433.033-.225.008-.234.009h-.633l-.392-.025-.375-.033-.35-.059-.341-.058-.317-.075-.3-.092-.283-.108-.259-.125-.25-.134-.225-.15-.216-.166-.184-.175-.175-.192-.158-.208-.133-.217-.117-.242-.108-.241-.084-.267-.058-.283-.05-.292-.025-.308-.008-.325v-3.925l.008-.117.008-.1.009-.108.033-.217.033-.108.025-.1.067-.2.083-.2.1-.192.05-.091.059-.1.066-.084.067-.091.067-.084.075-.091.158-.167.192-.192.25-.2.125-.091.141-.092.142-.083.142-.075.15-.075.316-.134.167-.058.35-.1.183-.042.192-.041.183-.034.2-.025.2-.033.2-.017.209-.016.433-.017h.225l.392.008.391.025Zm-1.7 1.334-.341.058-.325.083-.317.109-.308.125-.292.15-.267.208-.225.217-.191.233-.159.25-.108.258-.067.267-.025.292v.8h6.825l-.075-.817-.208-.692-.358-.575-.5-.441-.634-.317-.791-.192-.925-.058-.359.008-.35.034Z" mask="url(#a)"/><mask id="b" width="12" height="13" x="108.641" y="20.6" fill="#000" maskUnits="userSpaceOnUse"><path fill="#fff" d="M108.641 20.6h12v13h-12z"/><path d="m115.34 21.633.359.042.35.067.325.075.308.1.292.116.275.134.258.15.242.175.216.183.2.2.184.225.175.233.141.259.134.275.116.291.092.309.083.325.059.341.041.367.025.375.009.392v.1l-.009.091-.016.167-.017.083-.017.075-.025.075-.016.067-.025.058-.034.067-.033.05-.083.1-.084.083-.108.059-.108.041-.067.017-.133.017-7.433.008v1.466l.008.2.017.2.033.192.05.183.058.167.067.167.092.142.091.15.117.124.125.134.142.108.15.108.158.092.183.092.192.075.2.075.217.05.233.058.25.042.258.025.267.025.283.017.3.008h.108l.109-.008h.108l.208-.009.2-.017.184-.016.1-.008.091-.017.259-.034.166-.033.159-.033.075-.025.075-.017.075-.025.066-.025.109-.033.033-.017.05-.017.042-.016.05-.025.041-.017.059-.025.166-.083.117-.067.067-.041.066-.034.067-.041.15-.084.15-.1.167-.108.083-.059.092-.058.05-.05.058-.05.042-.041.058-.042.042-.042.05-.033.091-.075.042-.025.042-.034.033-.024.042-.026.033-.024.033-.017.034-.025.058-.025.1-.034h.133l.05.009.075.017.042.008.1.05.1.1.025.033.033.067.009.041.016.042.017.092.008.041v.167l-.008.059-.008.05-.009.058-.033.116-.017.05-.025.05-.033.059-.025.058-.075.117-.042.05-.041.058-.092.117-.175.166-.192.167-.075.067-.25.175-.125.083-.141.084-.142.074-.15.075-.15.067-.158.058-.167.067-.167.058-.35.1-.183.042-.192.042-.191.033-.2.042-.417.05-.433.033-.459.017h-.641l-.383-.025-.375-.033-.359-.059-.325-.058-.325-.075-.3-.092-.275-.108-.275-.125-.241-.134-.225-.15-.209-.166-.191-.175-.184-.192-.15-.208-.141-.217-.117-.242-.1-.241-.083-.267-.067-.283-.042-.292-.033-.308-.008-.325v-3.817l.008-.108v-.117l.017-.1.008-.108.017-.108.041-.217.1-.3.084-.2.091-.192.059-.091.058-.1.058-.084.075-.091.067-.084.075-.091.158-.167.084-.083.116-.109.117-.1.125-.1.125-.091.142-.092.141-.083.142-.075.158-.075.15-.067.159-.067.166-.058.35-.1.367-.083.192-.034.191-.025.209-.033.2-.017.208-.016.433-.017h.225l.4.008.383.025Zm-1.699 1.334-.342.058-.325.083-.317.109-.308.125-.283.15-.284.208-.241.217-.192.233-.142.25-.108.258-.058.267-.025.292v.8h6.824l-.075-.817-.208-.692-.358-.575-.5-.441-.634-.317-.791-.192-.925-.058-.358.008-.35.034Z"/></mask><path fill="#181820" d="m115.34 21.633.359.042.35.067.325.075.308.1.292.116.275.134.258.15.242.175.216.183.2.2.184.225.175.233.141.259.134.275.116.291.092.309.083.325.059.341.041.367.025.375.009.392v.1l-.009.091-.016.167-.017.083-.017.075-.025.075-.016.067-.025.058-.034.067-.033.05-.083.1-.084.083-.108.059-.108.041-.067.017-.133.017-7.433.008v1.466l.008.2.017.2.033.192.05.183.058.167.067.167.092.142.091.15.117.124.125.134.142.108.15.108.158.092.183.092.192.075.2.075.217.05.233.058.25.042.258.025.267.025.283.017.3.008h.108l.109-.008h.108l.208-.009.2-.017.184-.016.1-.008.091-.017.259-.034.166-.033.159-.033.075-.025.075-.017.075-.025.066-.025.109-.033.033-.017.05-.017.042-.016.05-.025.041-.017.059-.025.166-.083.117-.067.067-.041.066-.034.067-.041.15-.084.15-.1.167-.108.083-.059.092-.058.05-.05.058-.05.042-.041.058-.042.042-.042.05-.033.091-.075.042-.025.042-.034.033-.024.042-.026.033-.024.033-.017.034-.025.058-.025.1-.034h.133l.05.009.075.017.042.008.1.05.1.1.025.033.033.067.009.041.016.042.017.092.008.041v.167l-.008.059-.008.05-.009.058-.033.116-.017.05-.025.05-.033.059-.025.058-.075.117-.042.05-.041.058-.092.117-.175.166-.192.167-.075.067-.25.175-.125.083-.141.084-.142.074-.15.075-.15.067-.158.058-.167.067-.167.058-.35.1-.183.042-.192.042-.191.033-.2.042-.417.05-.433.033-.459.017h-.641l-.383-.025-.375-.033-.359-.059-.325-.058-.325-.075-.3-.092-.275-.108-.275-.125-.241-.134-.225-.15-.209-.166-.191-.175-.184-.192-.15-.208-.141-.217-.117-.242-.1-.241-.083-.267-.067-.283-.042-.292-.033-.308-.008-.325v-3.817l.008-.108v-.117l.017-.1.008-.108.017-.108.041-.217.1-.3.084-.2.091-.192.059-.091.058-.1.058-.084.075-.091.067-.084.075-.091.158-.167.084-.083.116-.109.117-.1.125-.1.125-.091.142-.092.141-.083.142-.075.158-.075.15-.067.159-.067.166-.058.35-.1.367-.083.192-.034.191-.025.209-.033.2-.017.208-.016.433-.017h.225l.4.008.383.025Zm-1.699 1.334-.342.058-.325.083-.317.109-.308.125-.283.15-.284.208-.241.217-.192.233-.142.25-.108.258-.058.267-.025.292v.8h6.824l-.075-.817-.208-.692-.358-.575-.5-.441-.634-.317-.791-.192-.925-.058-.358.008-.35.034Z"/><path stroke="#181820" d="m115.34 21.633.359.042.35.067.325.075.308.1.292.116.275.134.258.15.242.175.216.183.2.2.184.225.175.233.141.259.134.275.116.291.092.309.083.325.059.341.041.367.025.375.009.392v.1l-.009.091-.016.167-.017.083-.017.075-.025.075-.016.067-.025.058-.034.067-.033.05-.083.1-.084.083-.108.059-.108.041-.067.017-.133.017-7.433.008v1.466l.008.2.017.2.033.192.05.183.058.167.067.167.092.142.091.15.117.124.125.134.142.108.15.108.158.092.183.092.192.075.2.075.217.05.233.058.25.042.258.025.267.025.283.017.3.008h.108l.109-.008h.108l.208-.009.2-.017.184-.016.1-.008.091-.017.259-.034.166-.033.159-.033.075-.025.075-.017.075-.025.066-.025.109-.033.033-.017.05-.017.042-.016.05-.025.041-.017.059-.025.166-.083.117-.067.067-.041.066-.034.067-.041.15-.084.15-.1.167-.108.083-.059.092-.058.05-.05.058-.05.042-.041.058-.042.042-.042.05-.033.091-.075.042-.025.042-.034.033-.024.042-.026.033-.024.033-.017.034-.025.058-.025.1-.034h.133l.05.009.075.017.042.008.1.05.1.1.025.033.033.067.009.041.016.042.017.092.008.041v.167l-.008.059-.008.05-.009.058-.033.116-.017.05-.025.05-.033.059-.025.058-.075.117-.042.05-.041.058-.092.117-.175.166-.192.167-.075.067-.25.175-.125.083-.141.084-.142.074-.15.075-.15.067-.158.058-.167.067-.167.058-.35.1-.183.042-.192.042-.191.033-.2.042-.417.05-.433.033-.459.017h-.641l-.383-.025-.375-.033-.359-.059-.325-.058-.325-.075-.3-.092-.275-.108-.275-.125-.241-.134-.225-.15-.209-.166-.191-.175-.184-.192-.15-.208-.141-.217-.117-.242-.1-.241-.083-.267-.067-.283-.042-.292-.033-.308-.008-.325v-3.817l.008-.108v-.117l.017-.1.008-.108.017-.108.041-.217.1-.3.084-.2.091-.192.059-.091.058-.1.058-.084.075-.091.067-.084.075-.091.158-.167.084-.083.116-.109.117-.1.125-.1.125-.091.142-.092.141-.083.142-.075.158-.075.15-.067.159-.067.166-.058.35-.1.367-.083.192-.034.191-.025.209-.033.2-.017.208-.016.433-.017h.225l.4.008.383.025Zm-1.699 1.334-.342.058-.325.083-.317.109-.308.125-.283.15-.284.208-.241.217-.192.233-.142.25-.108.258-.058.267-.025.292v.8h6.824l-.075-.817-.208-.692-.358-.575-.5-.441-.634-.317-.791-.192-.925-.058-.358.008-.35.034Z" mask="url(#b)"/><path fill="#181820" stroke="#181820" stroke-width=".5" d="m129.728 21.472.003.014c.076.301.184.555.336.737.16.19.368.302.615.302.289 0 .547-.088.727-.301.174-.205.24-.486.24-.799 0-1.309-.526-2.392-1.541-3.158l-.151.2.137-.21c-.916-.599-2.008-.89-3.387-.89-1.7 0-3.013.39-3.901 1.227-.89.84-1.307 2.086-1.307 3.698v5.966c0 1.532.491 2.755 1.541 3.483.926.754 2.171 1.092 3.734 1.092 1.362 0 2.419-.292 3.276-.84v.001l.01-.007c1.072-.762 1.589-1.736 1.589-3.02 0-.313-.066-.594-.24-.8-.18-.212-.438-.3-.727-.3a.818.818 0 0 0-.499.155.906.906 0 0 0-.303.436l-.015.04v.037l-.005.038a19 19 0 0 1-.131.675l-.001.007c-.105.579-.396 1.003-.867 1.29-.48.294-1.167.455-2.071.455-1.19 0-1.979-.313-2.482-.861h-.001c-.464-.502-.742-1.327-.742-2.59v-4.957c0-1.25.277-2.051.7-2.556.447-.533 1.213-.811 2.425-.811 1.396 0 2.183.343 2.548.97.229.442.406.84.49 1.277ZM45.64 23.594l-.016-.03c-.127-.225-.412-.39-.824-.39-.454 0-.923.17-1.322.508l-.01.009-.012.008c-.236.16-.58.53-1.04 1.12v6.056h2.317c.314 0 .592.066.797.228.214.169.311.414.311.688 0 .291-.091.55-.306.729-.207.172-.489.238-.802.238h-6.108c-.314 0-.59-.066-.794-.229-.212-.17-.306-.415-.306-.688 0-.29.09-.542.311-.71.207-.157.487-.206.789-.206h1.85v-.059h.017v-7.474h-1.8c-.312 0-.59-.064-.794-.226-.214-.17-.306-.416-.306-.691 0-.287.09-.538.312-.704.206-.155.485-.204.787-.204h2.767a.83.83 0 0 1 .749.434c.076.132.13.289.163.464.771-.703 1.616-1.14 2.513-1.14.848 0 1.556.257 2.04.795.535.538.735 1.286.735 2.08 0 .297-.068.564-.232.76-.17.205-.413.298-.685.298a.75.75 0 0 1-.526-.206 1.069 1.069 0 0 1-.28-.501m-.294-.957.024.024-.02-.02m-.005-.004.005.005m-.005-.005v-.007m.294.964v-.002l.24-.066-.24.07v-.002Zm0 0-.025-.088c-.084-.29-.145-.505-.193-.658a3.01 3.01 0 0 0-.071-.206m0 0a.169.169 0 0 0-.005-.012m0 0-.002-.002.002.002Zm-3.474-.57c.08-.085.161-.167.242-.245l-.242.245Z"/><mask id="c" width="11" height="18" x="96.599" y="16" fill="#000" maskUnits="userSpaceOnUse"><path fill="#fff" d="M96.599 16h11v18h-11z"/><path d="m106.566 17.033.05.017.05.025.041.025.05.033.109.109.025.05.033.05.025.058.017.058.033.134.033.15.009.166v14.184l-.009.058v.058l-.033.108-.008.042-.025.05-.017.042-.05.075-.058.067-.042.025-.033.025-.042.024-.083.034-.05.017-.1.016-.059.009h-.091l-.109-.017-.033-.008-.033-.017-.034-.009-.025-.016-.025-.008-.025-.026-.025-.016-.05-.042-.016-.025-.059-.1-.008-.033-.017-.042-.008-.033-.017-.042v-.175l-.008-.033v-.034l-.008-.033v-.067l-.009-.041v-.075l-.008-.075v-.05l-.008-.034v-.141l-.009-.05v-.108l-.108.075-.108.066-.109.075-.2.117-.091.066-.1.059-.175.1-.084.05-.075.05-.083.042-.208.116-.117.067-.117.05-.1.041-.041.017-.075.033-.075.026-.075.016-.159.05-.333.067-.175.025-.183.025-.092.017-.192.016h-.1l-.1.008h-.091l-.1.009h-.384l-.175-.008-.166-.009-.167-.017-.158-.008-.167-.025-.15-.016-.308-.059-.284-.066-.15-.042-.266-.083-.267-.1-.125-.059-.125-.05-.35-.2-.108-.067-.117-.083-.233-.183-.1-.092-.1-.108-.092-.1-.092-.108-.083-.117-.075-.117-.142-.241-.058-.125-.058-.134-.05-.133-.042-.133-.042-.15-.033-.15-.025-.142-.017-.159-.025-.158-.008-.158v-4.342l.008-.158.025-.15.017-.15.025-.15.067-.283.041-.134.05-.133.05-.125.067-.125.058-.125.15-.233.167-.217.083-.1.2-.2.217-.183.117-.084.325-.2.125-.058.233-.117.258-.1.125-.041.275-.084.275-.066.6-.1.309-.025.316-.017h.375l.209.017h.208l.1.016.1.009.183.016.184.034.091.008.175.033.084.017.075.017.233.066.075.025.075.034.067.025.075.025.066.033.075.025.075.033.084.042.141.075.242.133.075.042.242.158.166.117.075.058.334.267v-4.908l.008-.084v-.166l.033-.15.009-.067.025-.067.016-.058.025-.058.025-.05.034-.05.033-.034.033-.041.034-.034.041-.033.084-.05.05-.017.108-.025.05-.008h.117l.058.008.117.025Zm-4.75 5.992-.217.025-.217.017-.208.041-.2.042-.192.042-.35.133-.158.075-.15.083-.167.125-.166.134-.142.141-.125.142-.117.158-.091.167-.084.167-.066.191-.042.192-.033.192-.009.216v3.767l.009.216.025.209.041.192.059.191.075.175.1.167.108.158.133.142.142.133.167.117.183.117.158.075.35.133.184.058.183.05.2.05.208.034.217.033.225.025.467.016.391-.008.367-.033.358-.05.175-.034.167-.05.317-.1.141-.058.117-.083.133-.092.125-.091.134-.1.141-.1.134-.109.15-.108.141-.125.15-.125.3-.267v-5.491l-.175-.134-.175-.116-.166-.117-.167-.108-.158-.1-.15-.092-.142-.092-.133-.075-.25-.116-.109-.05-.158-.059-.317-.1-.166-.041-.334-.067-.175-.025-.175-.017-.175-.008-.358-.008h-.233l-.225.008Z"/></mask><path fill="#181820" d="m106.566 17.033.05.017.05.025.041.025.05.033.109.109.025.05.033.05.025.058.017.058.033.134.033.15.009.166v14.184l-.009.058v.058l-.033.108-.008.042-.025.05-.017.042-.05.075-.058.067-.042.025-.033.025-.042.024-.083.034-.05.017-.1.016-.059.009h-.091l-.109-.017-.033-.008-.033-.017-.034-.009-.025-.016-.025-.008-.025-.026-.025-.016-.05-.042-.016-.025-.059-.1-.008-.033-.017-.042-.008-.033-.017-.042v-.175l-.008-.033v-.034l-.008-.033v-.067l-.009-.041v-.075l-.008-.075v-.05l-.008-.034v-.141l-.009-.05v-.108l-.108.075-.108.066-.109.075-.2.117-.091.066-.1.059-.175.1-.084.05-.075.05-.083.042-.208.116-.117.067-.117.05-.1.041-.041.017-.075.033-.075.026-.075.016-.159.05-.333.067-.175.025-.183.025-.092.017-.192.016h-.1l-.1.008h-.091l-.1.009h-.384l-.175-.008-.166-.009-.167-.017-.158-.008-.167-.025-.15-.016-.308-.059-.284-.066-.15-.042-.266-.083-.267-.1-.125-.059-.125-.05-.35-.2-.108-.067-.117-.083-.233-.183-.1-.092-.1-.108-.092-.1-.092-.108-.083-.117-.075-.117-.142-.241-.058-.125-.058-.134-.05-.133-.042-.133-.042-.15-.033-.15-.025-.142-.017-.159-.025-.158-.008-.158v-4.342l.008-.158.025-.15.017-.15.025-.15.067-.283.041-.134.05-.133.05-.125.067-.125.058-.125.15-.233.167-.217.083-.1.2-.2.217-.183.117-.084.325-.2.125-.058.233-.117.258-.1.125-.041.275-.084.275-.066.6-.1.309-.025.316-.017h.375l.209.017h.208l.1.016.1.009.183.016.184.034.091.008.175.033.084.017.075.017.233.066.075.025.075.034.067.025.075.025.066.033.075.025.075.033.084.042.141.075.242.133.075.042.242.158.166.117.075.058.334.267v-4.908l.008-.084v-.166l.033-.15.009-.067.025-.067.016-.058.025-.058.025-.05.034-.05.033-.034.033-.041.034-.034.041-.033.084-.05.05-.017.108-.025.05-.008h.117l.058.008.117.025Zm-4.75 5.992-.217.025-.217.017-.208.041-.2.042-.192.042-.35.133-.158.075-.15.083-.167.125-.166.134-.142.141-.125.142-.117.158-.091.167-.084.167-.066.191-.042.192-.033.192-.009.216v3.767l.009.216.025.209.041.192.059.191.075.175.1.167.108.158.133.142.142.133.167.117.183.117.158.075.35.133.184.058.183.05.2.05.208.034.217.033.225.025.467.016.391-.008.367-.033.358-.05.175-.034.167-.05.317-.1.141-.058.117-.083.133-.092.125-.091.134-.1.141-.1.134-.109.15-.108.141-.125.15-.125.3-.267v-5.491l-.175-.134-.175-.116-.166-.117-.167-.108-.158-.1-.15-.092-.142-.092-.133-.075-.25-.116-.109-.05-.158-.059-.317-.1-.166-.041-.334-.067-.175-.025-.175-.017-.175-.008-.358-.008h-.233l-.225.008Z"/><path stroke="#181820" d="m106.566 17.033.05.017.05.025.041.025.05.033.109.109.025.05.033.05.025.058.017.058.033.134.033.15.009.166v14.184l-.009.058v.058l-.033.108-.008.042-.025.05-.017.042-.05.075-.058.067-.042.025-.033.025-.042.024-.083.034-.05.017-.1.016-.059.009h-.091l-.109-.017-.033-.008-.033-.017-.034-.009-.025-.016-.025-.008-.025-.026-.025-.016-.05-.042-.016-.025-.059-.1-.008-.033-.017-.042-.008-.033-.017-.042v-.175l-.008-.033v-.034l-.008-.033v-.067l-.009-.041v-.075l-.008-.075v-.05l-.008-.034v-.141l-.009-.05v-.108l-.108.075-.108.066-.109.075-.2.117-.091.066-.1.059-.175.1-.084.05-.075.05-.083.042-.208.116-.117.067-.117.05-.1.041-.041.017-.075.033-.075.026-.075.016-.159.05-.333.067-.175.025-.183.025-.092.017-.192.016h-.1l-.1.008h-.091l-.1.009h-.384l-.175-.008-.166-.009-.167-.017-.158-.008-.167-.025-.15-.016-.308-.059-.284-.066-.15-.042-.266-.083-.267-.1-.125-.059-.125-.05-.35-.2-.108-.067-.117-.083-.233-.183-.1-.092-.1-.108-.092-.1-.092-.108-.083-.117-.075-.117-.142-.241-.058-.125-.058-.134-.05-.133-.042-.133-.042-.15-.033-.15-.025-.142-.017-.159-.025-.158-.008-.158v-4.342l.008-.158.025-.15.017-.15.025-.15.067-.283.041-.134.05-.133.05-.125.067-.125.058-.125.15-.233.167-.217.083-.1.2-.2.217-.183.117-.084.325-.2.125-.058.233-.117.258-.1.125-.041.275-.084.275-.066.6-.1.309-.025.316-.017h.375l.209.017h.208l.1.016.1.009.183.016.184.034.091.008.175.033.084.017.075.017.233.066.075.025.075.034.067.025.075.025.066.033.075.025.075.033.084.042.141.075.242.133.075.042.242.158.166.117.075.058.334.267v-4.908l.008-.084v-.166l.033-.15.009-.067.025-.067.016-.058.025-.058.025-.05.034-.05.033-.034.033-.041.034-.034.041-.033.084-.05.05-.017.108-.025.05-.008h.117l.058.008.117.025Zm-4.75 5.992-.217.025-.217.017-.208.041-.2.042-.192.042-.35.133-.158.075-.15.083-.167.125-.166.134-.142.141-.125.142-.117.158-.091.167-.084.167-.066.191-.042.192-.033.192-.009.216v3.767l.009.216.025.209.041.192.059.191.075.175.1.167.108.158.133.142.142.133.167.117.183.117.158.075.35.133.184.058.183.05.2.05.208.034.217.033.225.025.467.016.391-.008.367-.033.358-.05.175-.034.167-.05.317-.1.141-.058.117-.083.133-.092.125-.091.134-.1.141-.1.134-.109.15-.108.141-.125.15-.125.3-.267v-5.491l-.175-.134-.175-.116-.166-.117-.167-.108-.158-.1-.15-.092-.142-.092-.133-.075-.25-.116-.109-.05-.158-.059-.317-.1-.166-.041-.334-.067-.175-.025-.175-.017-.175-.008-.358-.008h-.233l-.225.008Z" mask="url(#c)"/><mask id="d" width="12" height="13" x="132.64" y="20.467" fill="#000" maskUnits="userSpaceOnUse"><path fill="#fff" d="M132.64 20.467h12v13h-12z"/><path d="m138.715 21.475.159.008.15.017.15.008.15.017.283.033.133.017.134.033.125.017.116.033.125.025.233.067.217.067.3.125.1.05.092.041.083.05.092.05.1.067.083.075.092.075.166.166.15.184.134.2.058.1.117.216.1.242.041.117.034.125.041.133.034.125.025.142.016.133.034.3.008.15.017.15v5.217l.016.233.009.058.016.1.017.05.008.05.025.092.017.042.05.116.025.034.017.033.025.033.05.059.066.066.017.009v.008h.025l.008.017.042.016.017.009.041.016.025.017.034.008.091.034.1.041.084.034.033.008.042.017.041.025.075.025.059.025.016.016.025.017.042.033.017.017.016.025.017.017.033.05.025.05.009.033.008.025.017.067v.033l.008.033.008.042v.042l.009.041v.175l-.017.042v.033l-.008.042-.009.033-.016.034-.009.033-.016.025-.025.033-.042.05-.017.025-.033.017-.092.05-.066.033-.084.017-.083.008h-.167l-.025-.008h-.033l-.083-.017-.025-.016h-.025l-.05-.017-.092-.025-.1-.025-.042-.008-.033-.009-.042-.016-.175-.059-.058-.016-.058-.025-.2-.067-.084-.033-.041-.009-.034-.016-.041-.009-.034-.008-.033-.017-.025-.008-.058-.017-.059-.025-.025-.008-.008-.008-.017-.009h-.058l-.025-.016-.025-.009-.033-.008-.017-.017-.05-.033-.025-.025-.017-.025-.025-.025-.016-.025-.017-.033-.025-.034-.017-.033-.008-.033-.025-.034-.017-.041-.025-.075-.05-.175-.016-.05-.192.133-.183.125-.084.058-.166.1-.083.059-.284.183-.066.033-.059.042-.175.1-.05.033-.133.067-.042.017-.075.033-.033.008-.05.034-.058.016-.125.042-.334.083-.066.009-.15.025-.075.008-.075.017-.234.025-.166.016h-.084l-.091.009h-.625l-.134-.009-.258-.016-.25-.025-.125-.017-.125-.025-.233-.042-.225-.05-.117-.033-.108-.033-.1-.034-.109-.041-.2-.075-.1-.05-.091-.042-.092-.05-.092-.058-.091-.05-.084-.059-.2-.133-.183-.158-.083-.084-.075-.083-.084-.083-.2-.275-.116-.2-.05-.1-.05-.109-.042-.1-.042-.108-.066-.225-.05-.233-.034-.25-.016-.25v-.267l.008-.125.008-.133.017-.117.042-.25.058-.233.042-.117.091-.216.1-.217.125-.2.134-.183.075-.092.083-.092.167-.167.091-.075.192-.15.108-.066.275-.2.2-.108.217-.109.108-.042.217-.091.117-.042.35-.1.125-.025.116-.033.125-.017.125-.025.134-.017.125-.008.133-.017.4-.024h.25l.108.008h.117l.242.016.116.017.125.017.117.017.133.016.117.017.125.033.133.017.125.025.267.067.408.1.134.041.424.125.3.1.142.05v-1.775l-.008-.091-.009-.084-.008-.1-.017-.075-.016-.091-.034-.084-.025-.083-.025-.075-.041-.075-.034-.075-.091-.133-.05-.075-.05-.059-.058-.066-.125-.117-.067-.058-.15-.1-.083-.05-.167-.084-.092-.05-.058-.025-.133-.05-.284-.091-.216-.05-.084-.017-.075-.009-.083-.016-.075-.009-.25-.024-.083-.017h-.084l-.091-.009-.084-.008h-.566l-.209.008-.2.009-.191.017-.35.05-.167.024-.158.034-.142.041-.142.05-.133.042-.125.058-.117.059-.108.058-.1.075-.1.067-.083.083-.075.084-.075.091-.067.092-.05.091-.05.109-.042.108-.033.117-.025.117-.008.058-.017.05-.033.183-.017.075-.008.042-.009.033-.008.025v.034l-.017.05-.008.05-.008.033v.017l-.009.016v.042l-.016.025-.025.058-.009.017-.041.05-.009.017-.025.016-.041.042-.017.008-.017.017-.025.008-.025.017-.075.025-.033.008-.05.017h-.067l-.025.008h-.125l-.05-.008-.108-.017-.05-.008-.125-.05-.083-.05-.034-.034-.033-.024-.067-.067-.025-.042-.041-.075-.025-.05-.009-.05-.033-.1-.008-.05v-.058l-.009-.067v-.142l.009-.083v-.083l.016-.084.009-.083.033-.166.042-.167.025-.084.025-.075.066-.166.042-.084.075-.158.15-.233.05-.075.058-.075.184-.225.066-.075.084-.092.183-.167.1-.075.217-.15.116-.066.125-.067.134-.066.125-.05.141-.059.15-.05.15-.042.317-.083.167-.033.35-.067.366-.041.384-.034.2-.008h.208l.208-.008h.167l.167.008h.166Zm-2.008 6.091-.567.2-.45.292-.316.367-.192.45-.058.533.016.283.05.259.092.25.125.225.167.208.208.167.242.141.208.109.233.1.25.075.267.066.283.042.3.025.317.008.283-.008.267-.017.267-.033.258-.058.25-.059.25-.091.242-.109.166-.1.184-.125.208-.133.216-.15.234-.175.25-.183.258-.192v-2.008l-.45-.134-.441-.116-.442-.092-.433-.075-.425-.058-.409-.034-.4-.008-.816.042-.692.117Z"/></mask><path fill="#181820" d="m138.715 21.475.159.008.15.017.15.008.15.017.283.033.133.017.134.033.125.017.116.033.125.025.233.067.217.067.3.125.1.05.092.041.083.05.092.05.1.067.083.075.092.075.166.166.15.184.134.2.058.1.117.216.1.242.041.117.034.125.041.133.034.125.025.142.016.133.034.3.008.15.017.15v5.217l.016.233.009.058.016.1.017.05.008.05.025.092.017.042.05.116.025.034.017.033.025.033.05.059.066.066.017.009v.008h.025l.008.017.042.016.017.009.041.016.025.017.034.008.091.034.1.041.084.034.033.008.042.017.041.025.075.025.059.025.016.016.025.017.042.033.017.017.016.025.017.017.033.05.025.05.009.033.008.025.017.067v.033l.008.033.008.042v.042l.009.041v.175l-.017.042v.033l-.008.042-.009.033-.016.034-.009.033-.016.025-.025.033-.042.05-.017.025-.033.017-.092.05-.066.033-.084.017-.083.008h-.167l-.025-.008h-.033l-.083-.017-.025-.016h-.025l-.05-.017-.092-.025-.1-.025-.042-.008-.033-.009-.042-.016-.175-.059-.058-.016-.058-.025-.2-.067-.084-.033-.041-.009-.034-.016-.041-.009-.034-.008-.033-.017-.025-.008-.058-.017-.059-.025-.025-.008-.008-.008-.017-.009h-.058l-.025-.016-.025-.009-.033-.008-.017-.017-.05-.033-.025-.025-.017-.025-.025-.025-.016-.025-.017-.033-.025-.034-.017-.033-.008-.033-.025-.034-.017-.041-.025-.075-.05-.175-.016-.05-.192.133-.183.125-.084.058-.166.1-.083.059-.284.183-.066.033-.059.042-.175.1-.05.033-.133.067-.042.017-.075.033-.033.008-.05.034-.058.016-.125.042-.334.083-.066.009-.15.025-.075.008-.075.017-.234.025-.166.016h-.084l-.091.009h-.625l-.134-.009-.258-.016-.25-.025-.125-.017-.125-.025-.233-.042-.225-.05-.117-.033-.108-.033-.1-.034-.109-.041-.2-.075-.1-.05-.091-.042-.092-.05-.092-.058-.091-.05-.084-.059-.2-.133-.183-.158-.083-.084-.075-.083-.084-.083-.2-.275-.116-.2-.05-.1-.05-.109-.042-.1-.042-.108-.066-.225-.05-.233-.034-.25-.016-.25v-.267l.008-.125.008-.133.017-.117.042-.25.058-.233.042-.117.091-.216.1-.217.125-.2.134-.183.075-.092.083-.092.167-.167.091-.075.192-.15.108-.066.275-.2.2-.108.217-.109.108-.042.217-.091.117-.042.35-.1.125-.025.116-.033.125-.017.125-.025.134-.017.125-.008.133-.017.4-.024h.25l.108.008h.117l.242.016.116.017.125.017.117.017.133.016.117.017.125.033.133.017.125.025.267.067.408.1.134.041.424.125.3.1.142.05v-1.775l-.008-.091-.009-.084-.008-.1-.017-.075-.016-.091-.034-.084-.025-.083-.025-.075-.041-.075-.034-.075-.091-.133-.05-.075-.05-.059-.058-.066-.125-.117-.067-.058-.15-.1-.083-.05-.167-.084-.092-.05-.058-.025-.133-.05-.284-.091-.216-.05-.084-.017-.075-.009-.083-.016-.075-.009-.25-.024-.083-.017h-.084l-.091-.009-.084-.008h-.566l-.209.008-.2.009-.191.017-.35.05-.167.024-.158.034-.142.041-.142.05-.133.042-.125.058-.117.059-.108.058-.1.075-.1.067-.083.083-.075.084-.075.091-.067.092-.05.091-.05.109-.042.108-.033.117-.025.117-.008.058-.017.05-.033.183-.017.075-.008.042-.009.033-.008.025v.034l-.017.05-.008.05-.008.033v.017l-.009.016v.042l-.016.025-.025.058-.009.017-.041.05-.009.017-.025.016-.041.042-.017.008-.017.017-.025.008-.025.017-.075.025-.033.008-.05.017h-.067l-.025.008h-.125l-.05-.008-.108-.017-.05-.008-.125-.05-.083-.05-.034-.034-.033-.024-.067-.067-.025-.042-.041-.075-.025-.05-.009-.05-.033-.1-.008-.05v-.058l-.009-.067v-.142l.009-.083v-.083l.016-.084.009-.083.033-.166.042-.167.025-.084.025-.075.066-.166.042-.084.075-.158.15-.233.05-.075.058-.075.184-.225.066-.075.084-.092.183-.167.1-.075.217-.15.116-.066.125-.067.134-.066.125-.05.141-.059.15-.05.15-.042.317-.083.167-.033.35-.067.366-.041.384-.034.2-.008h.208l.208-.008h.167l.167.008h.166Zm-2.008 6.091-.567.2-.45.292-.316.367-.192.45-.058.533.016.283.05.259.092.25.125.225.167.208.208.167.242.141.208.109.233.1.25.075.267.066.283.042.3.025.317.008.283-.008.267-.017.267-.033.258-.058.25-.059.25-.091.242-.109.166-.1.184-.125.208-.133.216-.15.234-.175.25-.183.258-.192v-2.008l-.45-.134-.441-.116-.442-.092-.433-.075-.425-.058-.409-.034-.4-.008-.816.042-.692.117Z"/><path stroke="#181820" d="m138.715 21.475.159.008.15.017.15.008.15.017.283.033.133.017.134.033.125.017.116.033.125.025.233.067.217.067.3.125.1.05.092.041.083.05.092.05.1.067.083.075.092.075.166.166.15.184.134.2.058.1.117.216.1.242.041.117.034.125.041.133.034.125.025.142.016.133.034.3.008.15.017.15v5.217l.016.233.009.058.016.1.017.05.008.05.025.092.017.042.05.116.025.034.017.033.025.033.05.059.066.066.017.009v.008h.025l.008.017.042.016.017.009.041.016.025.017.034.008.091.034.1.041.084.034.033.008.042.017.041.025.075.025.059.025.016.016.025.017.042.033.017.017.016.025.017.017.033.05.025.05.009.033.008.025.017.067v.033l.008.033.008.042v.042l.009.041v.175l-.017.042v.033l-.008.042-.009.033-.016.034-.009.033-.016.025-.025.033-.042.05-.017.025-.033.017-.092.05-.066.033-.084.017-.083.008h-.167l-.025-.008h-.033l-.083-.017-.025-.016h-.025l-.05-.017-.092-.025-.1-.025-.042-.008-.033-.009-.042-.016-.175-.059-.058-.016-.058-.025-.2-.067-.084-.033-.041-.009-.034-.016-.041-.009-.034-.008-.033-.017-.025-.008-.058-.017-.059-.025-.025-.008-.008-.008-.017-.009h-.058l-.025-.016-.025-.009-.033-.008-.017-.017-.05-.033-.025-.025-.017-.025-.025-.025-.016-.025-.017-.033-.025-.034-.017-.033-.008-.033-.025-.034-.017-.041-.025-.075-.05-.175-.016-.05-.192.133-.183.125-.084.058-.166.1-.083.059-.284.183-.066.033-.059.042-.175.1-.05.033-.133.067-.042.017-.075.033-.033.008-.05.034-.058.016-.125.042-.334.083-.066.009-.15.025-.075.008-.075.017-.234.025-.166.016h-.084l-.091.009h-.625l-.134-.009-.258-.016-.25-.025-.125-.017-.125-.025-.233-.042-.225-.05-.117-.033-.108-.033-.1-.034-.109-.041-.2-.075-.1-.05-.091-.042-.092-.05-.092-.058-.091-.05-.084-.059-.2-.133-.183-.158-.083-.084-.075-.083-.084-.083-.2-.275-.116-.2-.05-.1-.05-.109-.042-.1-.042-.108-.066-.225-.05-.233-.034-.25-.016-.25v-.267l.008-.125.008-.133.017-.117.042-.25.058-.233.042-.117.091-.216.1-.217.125-.2.134-.183.075-.092.083-.092.167-.167.091-.075.192-.15.108-.066.275-.2.2-.108.217-.109.108-.042.217-.091.117-.042.35-.1.125-.025.116-.033.125-.017.125-.025.134-.017.125-.008.133-.017.4-.024h.25l.108.008h.117l.242.016.116.017.125.017.117.017.133.016.117.017.125.033.133.017.125.025.267.067.408.1.134.041.424.125.3.1.142.05v-1.775l-.008-.091-.009-.084-.008-.1-.017-.075-.016-.091-.034-.084-.025-.083-.025-.075-.041-.075-.034-.075-.091-.133-.05-.075-.05-.059-.058-.066-.125-.117-.067-.058-.15-.1-.083-.05-.167-.084-.092-.05-.058-.025-.133-.05-.284-.091-.216-.05-.084-.017-.075-.009-.083-.016-.075-.009-.25-.024-.083-.017h-.084l-.091-.009-.084-.008h-.566l-.209.008-.2.009-.191.017-.35.05-.167.024-.158.034-.142.041-.142.05-.133.042-.125.058-.117.059-.108.058-.1.075-.1.067-.083.083-.075.084-.075.091-.067.092-.05.091-.05.109-.042.108-.033.117-.025.117-.008.058-.017.05-.033.183-.017.075-.008.042-.009.033-.008.025v.034l-.017.05-.008.05-.008.033v.017l-.009.016v.042l-.016.025-.025.058-.009.017-.041.05-.009.017-.025.016-.041.042-.017.008-.017.017-.025.008-.025.017-.075.025-.033.008-.05.017h-.067l-.025.008h-.125l-.05-.008-.108-.017-.05-.008-.125-.05-.083-.05-.034-.034-.033-.024-.067-.067-.025-.042-.041-.075-.025-.05-.009-.05-.033-.1-.008-.05v-.058l-.009-.067v-.142l.009-.083v-.083l.016-.084.009-.083.033-.166.042-.167.025-.084.025-.075.066-.166.042-.084.075-.158.15-.233.05-.075.058-.075.184-.225.066-.075.084-.092.183-.167.1-.075.217-.15.116-.066.125-.067.134-.066.125-.05.141-.059.15-.05.15-.042.317-.083.167-.033.35-.067.366-.041.384-.034.2-.008h.208l.208-.008h.167l.167.008h.166Zm-2.008 6.091-.567.2-.45.292-.316.367-.192.45-.058.533.016.283.05.259.092.25.125.225.167.208.208.167.242.141.208.109.233.1.25.075.267.066.283.042.3.025.317.008.283-.008.267-.017.267-.033.258-.058.25-.059.25-.091.242-.109.166-.1.184-.125.208-.133.216-.15.234-.175.25-.183.258-.192v-2.008l-.45-.134-.441-.116-.442-.092-.433-.075-.425-.058-.409-.034-.4-.008-.816.042-.692.117Z" mask="url(#d)"/><path fill="#181820" stroke="#181820" stroke-width=".5" d="m34.386 17.31-.009-.005c-.66-.357-1.52-.555-2.502-.555-1.205 0-2.162.3-2.817.942-.656.645-.966 1.593-.966 2.8v1.091h-1.284c-.282 0-.552.048-.754.205-.216.168-.304.42-.304.712 0 .272.093.514.3.682.197.161.464.226.758.226h1.45v8.467c0 .281.051.549.21.749.168.212.418.3.707.3.272 0 .514-.092.684-.295.164-.196.233-.46.233-.754v-8.483H32.6c.324 0 .615-.049.828-.203.232-.169.322-.424.322-.714 0-.27-.096-.516-.318-.684-.21-.16-.498-.224-.832-.224h-2.508v-1.042c0-.683.167-1.146.46-1.44.292-.292.752-.46 1.431-.46.779 0 1.254.182 1.471.421.09.157.264.469.431 1.026l.005.016.007.015c.182.405.545.672.945.672.26 0 .509-.076.684-.287.168-.201.232-.483.232-.813 0-.992-.5-1.847-1.372-2.365Z"/><mask id="e" width="12" height="13" x="84.733" y="20.567" fill="#000" maskUnits="userSpaceOnUse"><path fill="#fff" d="M84.733 20.567h12v13h-12z"/><path d="m91.666 21.625.508.067.467.1.433.125.4.15.358.183.317.208.283.242.242.267.208.291.175.325.134.35.091.375.059.409.016.425v3.925l-.016.433-.059.4-.091.383-.125.35-.167.317-.2.291-.242.267-.275.242-.316.208-.35.184-.392.158-.425.125-.458.092-.5.075-.534.041-.566.017-.6-.008-.567-.034-.525-.066-.483-.092-.442-.125-.4-.15-.358-.183-.325-.209-.284-.242-.25-.266-.208-.3-.175-.317-.125-.358-.091-.384-.059-.408-.016-.441v-3.925l.016-.425.059-.409.091-.375.133-.35.167-.325.217-.291.242-.267.283-.242.325-.208.358-.183.392-.15.433-.125.467-.1.508-.067.542-.05.583-.008.575.008.542.05Zm-2.225 1.342-.442.083-.391.108-.35.142-.309.175-.258.2-.209.233-.166.267-.117.292-.075.325-.016.35v3.925l.016.35.075.324.117.3.175.259.216.233.259.2.308.167.358.142.409.1.458.075.5.033h1.084l.491-.034.45-.066.4-.1.35-.134.308-.166.259-.192.216-.233.167-.267.117-.3.075-.333.025-.358v-3.925l-.025-.35-.075-.325-.117-.292-.167-.267-.225-.233-.258-.2-.317-.175-.366-.142-.409-.108-.458-.083-.517-.042-.558-.017-.525.017-.483.042Z"/></mask><path fill="#181820" d="m91.666 21.625.508.067.467.1.433.125.4.15.358.183.317.208.283.242.242.267.208.291.175.325.134.35.091.375.059.409.016.425v3.925l-.016.433-.059.4-.091.383-.125.35-.167.317-.2.291-.242.267-.275.242-.316.208-.35.184-.392.158-.425.125-.458.092-.5.075-.534.041-.566.017-.6-.008-.567-.034-.525-.066-.483-.092-.442-.125-.4-.15-.358-.183-.325-.209-.284-.242-.25-.266-.208-.3-.175-.317-.125-.358-.091-.384-.059-.408-.016-.441v-3.925l.016-.425.059-.409.091-.375.133-.35.167-.325.217-.291.242-.267.283-.242.325-.208.358-.183.392-.15.433-.125.467-.1.508-.067.542-.05.583-.008.575.008.542.05Zm-2.225 1.342-.442.083-.391.108-.35.142-.309.175-.258.2-.209.233-.166.267-.117.292-.075.325-.016.35v3.925l.016.35.075.324.117.3.175.259.216.233.259.2.308.167.358.142.409.1.458.075.5.033h1.084l.491-.034.45-.066.4-.1.35-.134.308-.166.259-.192.216-.233.167-.267.117-.3.075-.333.025-.358v-3.925l-.025-.35-.075-.325-.117-.292-.167-.267-.225-.233-.258-.2-.317-.175-.366-.142-.409-.108-.458-.083-.517-.042-.558-.017-.525.017-.483.042Z"/><path stroke="#181820" d="m91.666 21.625.508.067.467.1.433.125.4.15.358.183.317.208.283.242.242.267.208.291.175.325.134.35.091.375.059.409.016.425v3.925l-.016.433-.059.4-.091.383-.125.35-.167.317-.2.291-.242.267-.275.242-.316.208-.35.184-.392.158-.425.125-.458.092-.5.075-.534.041-.566.017-.6-.008-.567-.034-.525-.066-.483-.092-.442-.125-.4-.15-.358-.183-.325-.209-.284-.242-.25-.266-.208-.3-.175-.317-.125-.358-.091-.384-.059-.408-.016-.441v-3.925l.016-.425.059-.409.091-.375.133-.35.167-.325.217-.291.242-.267.283-.242.325-.208.358-.183.392-.15.433-.125.467-.1.508-.067.542-.05.583-.008.575.008.542.05Zm-2.225 1.342-.442.083-.391.108-.35.142-.309.175-.258.2-.209.233-.166.267-.117.292-.075.325-.016.35v3.925l.016.35.075.324.117.3.175.259.216.233.259.2.308.167.358.142.409.1.458.075.5.033h1.084l.491-.034.45-.066.4-.1.35-.134.308-.166.259-.192.216-.233.167-.267.117-.3.075-.333.025-.358v-3.925l-.025-.35-.075-.325-.117-.292-.167-.267-.225-.233-.258-.2-.317-.175-.366-.142-.409-.108-.458-.083-.517-.042-.558-.017-.525.017-.483.042Z" mask="url(#e)"/><path fill="#181820" stroke="#181820" stroke-width=".5" d="M150.667 22.38c-.571-.701-1.249-1.055-2.019-1.055-.562 0-.998.105-1.335.323l-.011.007-.01.008c-.099.08-.272.247-.516.5a.864.864 0 0 0-.095-.212c-.126-.327-.376-.56-.699-.56-.231 0-.456.059-.616.241-.152.175-.201.415-.201.676v9.483c0 .345.045.647.195.866.166.244.422.335.713.335.29 0 .554-.09.734-.322.17-.219.233-.523.233-.879v-7.596c.533-.663.986-.945 1.417-.945.387 0 .642.112.808.308.172.204.283.542.283 1.067v7.158c0 .352.064.651.224.867.17.23.419.325.693.325.274 0 .523-.095.694-.325.159-.216.223-.515.223-.867v-7.66c.476-.64 1.023-.931 1.516-.931.35 0 .582.111.733.297.158.196.259.512.259.978v7.25c0 .342.048.644.2.864.167.241.423.335.717.335.292 0 .554-.092.731-.327.167-.219.227-.522.227-.872v-7.742c0-.831-.225-1.5-.707-1.96-.479-.456-1.172-.665-2.026-.665-.547 0-1.066.091-1.444.308-.317.131-.616.376-.921.723Z"/><mask id="f" width="12" height="13" x="60.8" y="20.6" fill="#000" maskUnits="userSpaceOnUse"><path fill="#fff" d="M60.8 20.6h12v13h-12z"/><path d="m67.491 21.633.367.042.341.067.334.075.308.1.292.116.275.134.258.15.234.175.224.183.2.2.184.225.166.233.15.259.134.275.108.291.092.309.083.325.058.341.05.367.025.375.009.392v.1l-.009.091-.008.084-.025.166-.017.075-.025.075-.016.067-.067.125-.025.05-.083.1-.042.042-.05.041-.042.025-.058.034-.058.025-.117.033-.067.008-.075.009h-7.408v-.059h-.017v1.534l.009.2.017.2.033.191.05.183.05.167.075.167.083.142.1.15.117.124.125.134.133.108.15.108.167.092.183.092.184.075.208.075.216.05.234.058.241.042.259.025.275.025.283.017.3.008h.109l.108-.008h.1l.108-.009h.1l.2-.017.192-.016.091-.008.1-.017.259-.034.083-.016.075-.017.084-.017.075-.016.083-.025.075-.017.133-.05.075-.025.034-.008.041-.017.05-.017.042-.016.041-.025.05-.017.05-.025.059-.025.117-.058.116-.067.067-.041.067-.034.066-.041.15-.084.067-.05.158-.108.084-.05.091-.059.084-.058.108-.1.108-.083.042-.042.05-.033.041-.034.05-.041.075-.058.075-.05.042-.026.033-.016.034-.025.058-.025.075-.025.042-.009h.075l.083.009.125.025.033.017.059.033.033.025.075.075.025.033.033.067.017.083.017.05v.042l.008.041v.059l.008.058-.008.05v.059l-.008.05-.009.058-.058.166-.025.05-.05.117-.075.117-.042.05-.091.116-.1.109-.117.116-.133.117-.067.05-.067.067-.125.083-.125.092-.266.166-.142.075-.15.075-.15.067-.158.058-.167.067-.166.058-.175.05-.184.05-.367.084-.391.075-.417.05-.433.033-.459.017h-.641l-.392-.025-.367-.033-.358-.059-.333-.058-.317-.075-.3-.092-.283-.108-.267-.125-.242-.134-.224-.15-.217-.166-.192-.175-.175-.192-.158-.208-.133-.217-.117-.242-.1-.241-.083-.267-.067-.283-.05-.292-.025-.308-.008-.325v-3.925l.008-.117.008-.1.05-.325.025-.108.025-.1.042-.1.067-.2.05-.1.091-.192.059-.091.058-.1.058-.084.067-.091.075-.084.075-.091.15-.167.083-.083.117-.109.242-.2.266-.183.142-.083.3-.15.316-.134.167-.058.35-.1.367-.083.191-.034.192-.025.2-.033.2-.017.217-.016.433-.017h.217l.4.008.383.025Zm-1.7 1.334-.333.058-.334.083-.316.109-.3.125-.292.15-.283.208-.233.217-.192.233-.142.25-.108.258-.067.267-.017.292v.8h6.817l-.067-.817-.216-.692-.35-.575-.5-.441-.642-.317-.783-.192-.925-.058-.367.008-.35.034Z"/></mask><path fill="#181820" d="m67.491 21.633.367.042.341.067.334.075.308.1.292.116.275.134.258.15.234.175.224.183.2.2.184.225.166.233.15.259.134.275.108.291.092.309.083.325.058.341.05.367.025.375.009.392v.1l-.009.091-.008.084-.025.166-.017.075-.025.075-.016.067-.067.125-.025.05-.083.1-.042.042-.05.041-.042.025-.058.034-.058.025-.117.033-.067.008-.075.009h-7.408v-.059h-.017v1.534l.009.2.017.2.033.191.05.183.05.167.075.167.083.142.1.15.117.124.125.134.133.108.15.108.167.092.183.092.184.075.208.075.216.05.234.058.241.042.259.025.275.025.283.017.3.008h.109l.108-.008h.1l.108-.009h.1l.2-.017.192-.016.091-.008.1-.017.259-.034.083-.016.075-.017.084-.017.075-.016.083-.025.075-.017.133-.05.075-.025.034-.008.041-.017.05-.017.042-.016.041-.025.05-.017.05-.025.059-.025.117-.058.116-.067.067-.041.067-.034.066-.041.15-.084.067-.05.158-.108.084-.05.091-.059.084-.058.108-.1.108-.083.042-.042.05-.033.041-.034.05-.041.075-.058.075-.05.042-.026.033-.016.034-.025.058-.025.075-.025.042-.009h.075l.083.009.125.025.033.017.059.033.033.025.075.075.025.033.033.067.017.083.017.05v.042l.008.041v.059l.008.058-.008.05v.059l-.008.05-.009.058-.058.166-.025.05-.05.117-.075.117-.042.05-.091.116-.1.109-.117.116-.133.117-.067.05-.067.067-.125.083-.125.092-.266.166-.142.075-.15.075-.15.067-.158.058-.167.067-.166.058-.175.05-.184.05-.367.084-.391.075-.417.05-.433.033-.459.017h-.641l-.392-.025-.367-.033-.358-.059-.333-.058-.317-.075-.3-.092-.283-.108-.267-.125-.242-.134-.224-.15-.217-.166-.192-.175-.175-.192-.158-.208-.133-.217-.117-.242-.1-.241-.083-.267-.067-.283-.05-.292-.025-.308-.008-.325v-3.925l.008-.117.008-.1.05-.325.025-.108.025-.1.042-.1.067-.2.05-.1.091-.192.059-.091.058-.1.058-.084.067-.091.075-.084.075-.091.15-.167.083-.083.117-.109.242-.2.266-.183.142-.083.3-.15.316-.134.167-.058.35-.1.367-.083.191-.034.192-.025.2-.033.2-.017.217-.016.433-.017h.217l.4.008.383.025Zm-1.7 1.334-.333.058-.334.083-.316.109-.3.125-.292.15-.283.208-.233.217-.192.233-.142.25-.108.258-.067.267-.017.292v.8h6.817l-.067-.817-.216-.692-.35-.575-.5-.441-.642-.317-.783-.192-.925-.058-.367.008-.35.034Z"/><path stroke="#181820" d="m67.491 21.633.367.042.341.067.334.075.308.1.292.116.275.134.258.15.234.175.224.183.2.2.184.225.166.233.15.259.134.275.108.291.092.309.083.325.058.341.05.367.025.375.009.392v.1l-.009.091-.008.084-.025.166-.017.075-.025.075-.016.067-.067.125-.025.05-.083.1-.042.042-.05.041-.042.025-.058.034-.058.025-.117.033-.067.008-.075.009h-7.408v-.059h-.017v1.534l.009.2.017.2.033.191.05.183.05.167.075.167.083.142.1.15.117.124.125.134.133.108.15.108.167.092.183.092.184.075.208.075.216.05.234.058.241.042.259.025.275.025.283.017.3.008h.109l.108-.008h.1l.108-.009h.1l.2-.017.192-.016.091-.008.1-.017.259-.034.083-.016.075-.017.084-.017.075-.016.083-.025.075-.017.133-.05.075-.025.034-.008.041-.017.05-.017.042-.016.041-.025.05-.017.05-.025.059-.025.117-.058.116-.067.067-.041.067-.034.066-.041.15-.084.067-.05.158-.108.084-.05.091-.059.084-.058.108-.1.108-.083.042-.042.05-.033.041-.034.05-.041.075-.058.075-.05.042-.026.033-.016.034-.025.058-.025.075-.025.042-.009h.075l.083.009.125.025.033.017.059.033.033.025.075.075.025.033.033.067.017.083.017.05v.042l.008.041v.059l.008.058-.008.05v.059l-.008.05-.009.058-.058.166-.025.05-.05.117-.075.117-.042.05-.091.116-.1.109-.117.116-.133.117-.067.05-.067.067-.125.083-.125.092-.266.166-.142.075-.15.075-.15.067-.158.058-.167.067-.166.058-.175.05-.184.05-.367.084-.391.075-.417.05-.433.033-.459.017h-.641l-.392-.025-.367-.033-.358-.059-.333-.058-.317-.075-.3-.092-.283-.108-.267-.125-.242-.134-.224-.15-.217-.166-.192-.175-.175-.192-.158-.208-.133-.217-.117-.242-.1-.241-.083-.267-.067-.283-.05-.292-.025-.308-.008-.325v-3.925l.008-.117.008-.1.05-.325.025-.108.025-.1.042-.1.067-.2.05-.1.091-.192.059-.091.058-.1.058-.084.067-.091.075-.084.075-.091.15-.167.083-.083.117-.109.242-.2.266-.183.142-.083.3-.15.316-.134.167-.058.35-.1.367-.083.191-.034.192-.025.2-.033.2-.017.217-.016.433-.017h.217l.4.008.383.025Zm-1.7 1.334-.333.058-.334.083-.316.109-.3.125-.292.15-.283.208-.233.217-.192.233-.142.25-.108.258-.067.267-.017.292v.8h6.817l-.067-.817-.216-.692-.35-.575-.5-.441-.642-.317-.783-.192-.925-.058-.367.008-.35.034Z" mask="url(#f)"/><path fill="#181820" stroke="#181820" stroke-width=".5" d="m81.888 21.477.002.009c.075.3.18.553.333.736.159.192.368.303.618.303.289 0 .547-.088.727-.301.174-.205.24-.486.24-.799 0-1.309-.526-2.392-1.542-3.158l-.15.2.137-.21c-.916-.599-2.008-.89-3.387-.89-1.708 0-3.022.39-3.907 1.227-.889.84-1.301 2.087-1.301 3.698v5.966c0 1.524.437 2.754 1.535 3.485.933.752 2.177 1.09 3.731 1.09 1.362 0 2.428-.291 3.278-.84l.009-.006c1.07-.761 1.597-1.735 1.597-3.02 0-.313-.066-.594-.24-.8-.18-.212-.438-.3-.727-.3a.826.826 0 0 0-.505.155.87.87 0 0 0-.3.443l-.012.037v.03l-.005.037-.027.142-.042.217-.063.325v.002c-.105.579-.396 1.003-.867 1.29-.48.294-1.167.455-2.07.455-1.192 0-1.988-.313-2.491-.86-.458-.503-.743-1.33-.743-2.59v-4.958c0-1.249.284-2.05.708-2.556.447-.534 1.205-.811 2.425-.811 1.396 0 2.182.343 2.548.97.227.44.398.84.491 1.282Z"/><mask id="g" width="11" height="17" x="156.682" y="20.517" fill="#000" maskUnits="userSpaceOnUse"><path fill="#fff" d="M156.682 20.517h11v17h-11z"/><path d="m158.323 21.525.1.033.025.017.025.008.025.025.05.034.025.025.025.016.084.117.05.067.016.041.017.034.008.033.017.075.008.033.017.034.008.041.009.034.016.033.009.042.041.1.017.041.025.067.008.042.025.1.017.033.017.067.208-.1.408-.192.2-.092.192-.083.383-.15.184-.067.175-.066.175-.059.166-.05.167-.058.167-.042.316-.075.159-.033.283-.05.142-.017.266-.016h.134l.383.008.367.025.358.033.325.05.317.075.3.084.275.1.258.116.242.125.225.142.208.167.183.166.175.192.15.2.134.217.116.233.1.25.075.258.067.275.05.292.025.3.008.317v3.966l-.008.159-.008.15-.009.141-.025.15-.016.142-.067.267-.042.133-.041.125-.1.25-.067.116-.058.117-.075.117-.075.108-.075.1-.084.108-.091.1-.1.1-.092.1-.217.184-.2.15-.216.133-.117.059-.108.058-.125.058-.125.05-.125.042-.267.092-.275.066-.142.033-.3.05-.3.034-.158.017-.167.008h-.525l-.2-.008-.2-.017-.191-.008-.384-.05-.183-.034-.367-.075-.175-.05-.175-.041-.175-.059-.175-.066-.333-.134-.167-.083-.158-.083-.167-.084-.158-.091-.158-.1-.3-.217v4.575l-.017.166-.008.075-.017.075-.05.2-.025.059-.033.058-.025.042-.034.05-.066.083-.084.067-.05.016-.041.025-.05.017-.05.008-.059.009h-.166l-.059-.017-.041-.017-.05-.016-.092-.05-.033-.034-.042-.033-.067-.083-.033-.05-.025-.05-.017-.059-.025-.066-.033-.134-.017-.083-.008-.075-.008-.092V22.383l.008-.075.008-.083.009-.075.008-.067.017-.066.025-.059.016-.066.042-.1.033-.05.025-.042.034-.042.033-.025.042-.033.033-.025.042-.025.091-.025.05-.008h.075l.025.008h.025Zm3.742 1.45-.383.033-.184.025-.175.025-.175.042-.316.083-.3.117-.125.058-.134.067-.125.083-.141.092-.134.1-.141.117-.142.125-.15.133-.15.15-.167.158-.166.167V30h.05v-.025l.391.233.375.209.375.2.35.158.342.15.333.116.317.1.3.076.292.058.283.033.267.017.233-.008.225-.009.217-.025.2-.025.208-.033.192-.042.183-.05.175-.058.167-.067.158-.075.142-.083.175-.109.15-.125.141-.125.117-.133.1-.142.083-.158.067-.158.05-.167.042-.183.016-.184.009-.191v-3.958l-.009-.234-.025-.216-.041-.192-.059-.192-.075-.175-.091-.166-.117-.15-.125-.142-.15-.125-.167-.125-.183-.1-.15-.075-.158-.075-.167-.05-.175-.058-.183-.042-.2-.042-.2-.033-.217-.025-.225-.017-.233-.008-.242-.008-.208.008h-.217Z"/></mask><path fill="#181820" d="m158.323 21.525.1.033.025.017.025.008.025.025.05.034.025.025.025.016.084.117.05.067.016.041.017.034.008.033.017.075.008.033.017.034.008.041.009.034.016.033.009.042.041.1.017.041.025.067.008.042.025.1.017.033.017.067.208-.1.408-.192.2-.092.192-.083.383-.15.184-.067.175-.066.175-.059.166-.05.167-.058.167-.042.316-.075.159-.033.283-.05.142-.017.266-.016h.134l.383.008.367.025.358.033.325.05.317.075.3.084.275.1.258.116.242.125.225.142.208.167.183.166.175.192.15.2.134.217.116.233.1.25.075.258.067.275.05.292.025.3.008.317v3.966l-.008.159-.008.15-.009.141-.025.15-.016.142-.067.267-.042.133-.041.125-.1.25-.067.116-.058.117-.075.117-.075.108-.075.1-.084.108-.091.1-.1.1-.092.1-.217.184-.2.15-.216.133-.117.059-.108.058-.125.058-.125.05-.125.042-.267.092-.275.066-.142.033-.3.05-.3.034-.158.017-.167.008h-.525l-.2-.008-.2-.017-.191-.008-.384-.05-.183-.034-.367-.075-.175-.05-.175-.041-.175-.059-.175-.066-.333-.134-.167-.083-.158-.083-.167-.084-.158-.091-.158-.1-.3-.217v4.575l-.017.166-.008.075-.017.075-.05.2-.025.059-.033.058-.025.042-.034.05-.066.083-.084.067-.05.016-.041.025-.05.017-.05.008-.059.009h-.166l-.059-.017-.041-.017-.05-.016-.092-.05-.033-.034-.042-.033-.067-.083-.033-.05-.025-.05-.017-.059-.025-.066-.033-.134-.017-.083-.008-.075-.008-.092V22.383l.008-.075.008-.083.009-.075.008-.067.017-.066.025-.059.016-.066.042-.1.033-.05.025-.042.034-.042.033-.025.042-.033.033-.025.042-.025.091-.025.05-.008h.075l.025.008h.025Zm3.742 1.45-.383.033-.184.025-.175.025-.175.042-.316.083-.3.117-.125.058-.134.067-.125.083-.141.092-.134.1-.141.117-.142.125-.15.133-.15.15-.167.158-.166.167V30h.05v-.025l.391.233.375.209.375.2.35.158.342.15.333.116.317.1.3.076.292.058.283.033.267.017.233-.008.225-.009.217-.025.2-.025.208-.033.192-.042.183-.05.175-.058.167-.067.158-.075.142-.083.175-.109.15-.125.141-.125.117-.133.1-.142.083-.158.067-.158.05-.167.042-.183.016-.184.009-.191v-3.958l-.009-.234-.025-.216-.041-.192-.059-.192-.075-.175-.091-.166-.117-.15-.125-.142-.15-.125-.167-.125-.183-.1-.15-.075-.158-.075-.167-.05-.175-.058-.183-.042-.2-.042-.2-.033-.217-.025-.225-.017-.233-.008-.242-.008-.208.008h-.217Z"/><path stroke="#181820" d="m158.323 21.525.1.033.025.017.025.008.025.025.05.034.025.025.025.016.084.117.05.067.016.041.017.034.008.033.017.075.008.033.017.034.008.041.009.034.016.033.009.042.041.1.017.041.025.067.008.042.025.1.017.033.017.067.208-.1.408-.192.2-.092.192-.083.383-.15.184-.067.175-.066.175-.059.166-.05.167-.058.167-.042.316-.075.159-.033.283-.05.142-.017.266-.016h.134l.383.008.367.025.358.033.325.05.317.075.3.084.275.1.258.116.242.125.225.142.208.167.183.166.175.192.15.2.134.217.116.233.1.25.075.258.067.275.05.292.025.3.008.317v3.966l-.008.159-.008.15-.009.141-.025.15-.016.142-.067.267-.042.133-.041.125-.1.25-.067.116-.058.117-.075.117-.075.108-.075.1-.084.108-.091.1-.1.1-.092.1-.217.184-.2.15-.216.133-.117.059-.108.058-.125.058-.125.05-.125.042-.267.092-.275.066-.142.033-.3.05-.3.034-.158.017-.167.008h-.525l-.2-.008-.2-.017-.191-.008-.384-.05-.183-.034-.367-.075-.175-.05-.175-.041-.175-.059-.175-.066-.333-.134-.167-.083-.158-.083-.167-.084-.158-.091-.158-.1-.3-.217v4.575l-.017.166-.008.075-.017.075-.05.2-.025.059-.033.058-.025.042-.034.05-.066.083-.084.067-.05.016-.041.025-.05.017-.05.008-.059.009h-.166l-.059-.017-.041-.017-.05-.016-.092-.05-.033-.034-.042-.033-.067-.083-.033-.05-.025-.05-.017-.059-.025-.066-.033-.134-.017-.083-.008-.075-.008-.092V22.383l.008-.075.008-.083.009-.075.008-.067.017-.066.025-.059.016-.066.042-.1.033-.05.025-.042.034-.042.033-.025.042-.033.033-.025.042-.025.091-.025.05-.008h.075l.025.008h.025Zm3.742 1.45-.383.033-.184.025-.175.025-.175.042-.316.083-.3.117-.125.058-.134.067-.125.083-.141.092-.134.1-.141.117-.142.125-.15.133-.15.15-.167.158-.166.167V30h.05v-.025l.391.233.375.209.375.2.35.158.342.15.333.116.317.1.3.076.292.058.283.033.267.017.233-.008.225-.009.217-.025.2-.025.208-.033.192-.042.183-.05.175-.058.167-.067.158-.075.142-.083.175-.109.15-.125.141-.125.117-.133.1-.142.083-.158.067-.158.05-.167.042-.183.016-.184.009-.191v-3.958l-.009-.234-.025-.216-.041-.192-.059-.192-.075-.175-.091-.166-.117-.15-.125-.142-.15-.125-.167-.125-.183-.1-.15-.075-.158-.075-.167-.05-.175-.058-.183-.042-.2-.042-.2-.033-.217-.025-.225-.017-.233-.008-.242-.008-.208.008h-.217Z" mask="url(#g)"/><path fill="#CCC" d="M110 50.278H23.333a3.335 3.335 0 0 1 0-6.666H110a3.332 3.332 0 0 1 3.333 3.333c0 1.84-1.49 3.333-3.333 3.333ZM76.667 70.278H23.333a3.335 3.335 0 0 1 0-6.666h53.334a3.334 3.334 0 0 1 0 6.666ZM176.667 70.278H90a3.335 3.335 0 0 1 0-6.666h86.667A3.332 3.332 0 0 1 180 66.945c0 1.84-1.49 3.333-3.333 3.333ZM110 90.278H23.333a3.335 3.335 0 0 1 0-6.666H110a3.332 3.332 0 0 1 3.333 3.333c0 1.84-1.49 3.333-3.333 3.333Z"/></svg>