<svg xmlns="http://www.w3.org/2000/svg" width="200" height="139" fill="none"><path fill="#E9F6FF" d="M183.35 138.071H8.731c-4.873 0-8.731-3.858-8.731-8.731V8.731C0 3.858 3.858 0 8.731 0H183.35c4.873 0 8.731 3.858 8.731 8.731v120.406c0 5.076-4.061 8.934-8.731 8.934Z"/><path fill="#fff" d="M107.208 117.36H28.832c-3.654 0-6.7-3.045-6.7-6.7V27.614c0-3.655 3.046-6.7 6.7-6.7h78.376c3.655 0 6.701 3.045 6.701 6.7v82.843c0 3.858-3.046 6.903-6.701 6.903Z"/><path fill="#4285F4" d="M174.213 48.934 153.3 59.492l-20.914-10.558-25.787 51.777 16.041-1.625 8.324 13.807L153.3 68.426l22.335 44.467 8.324-13.807L200 100.711l-25.787-51.777Z"/><path fill="#FF9A00" d="M153.3 84.06c18.839 0 34.111-15.271 34.111-34.11 0-18.84-15.272-34.113-34.111-34.113-18.84 0-34.112 15.273-34.112 34.112 0 18.84 15.272 34.112 34.112 34.112Z"/><path fill="#FFEBCC" d="M153.3 76.751c14.802 0 26.802-12 26.802-26.802s-12-26.802-26.802-26.802c-14.803 0-26.803 12-26.803 26.802 0 14.803 12 26.802 26.803 26.802Z"/><path fill="#CECECE" d="M57.665 75.33H37.563c-1.624 0-2.842 1.218-2.842 2.843 0 1.624 1.218 2.842 2.843 2.842h20.101c1.624 0 2.843-1.218 2.843-2.842 0-1.625-1.219-2.843-2.843-2.843ZM98.274 61.523h-60.71c-1.625 0-2.843 1.218-2.843 2.842 0 1.625 1.218 2.843 2.843 2.843h60.71c1.624 0 2.843-1.218 2.843-2.843 0-1.624-1.219-2.842-2.843-2.842ZM98.274 49.746h-60.71c-1.625 0-2.843 1.218-2.843 2.843 0 1.624 1.218 2.842 2.843 2.842h60.71c1.624 0 2.843-1.218 2.843-2.842 0-1.625-1.219-2.843-2.843-2.843ZM37.563 41.827h60.711c1.624 0 2.843-1.218 2.843-2.842 0-1.625-1.219-2.843-2.843-2.843h-60.71c-1.625 0-2.843 1.218-2.843 2.843 0 1.624 1.421 2.842 2.843 2.842Z"/><path fill="#4285F4" d="M171.858 51.167c0-1.502-.122-2.599-.386-3.736h-17.157v6.782h10.071c-.203 1.685-1.3 4.223-3.736 5.929l-.034.227 5.424 4.202.376.038c3.452-3.188 5.442-7.878 5.442-13.442Z"/><path fill="#34A853" d="M154.315 69.036c4.934 0 9.076-1.625 12.101-4.427l-5.766-4.467c-1.543 1.076-3.614 1.827-6.335 1.827-4.833 0-8.934-3.187-10.396-7.593l-.215.018-5.64 4.365-.074.206c3.005 5.969 9.178 10.07 16.325 10.07Z"/><path fill="#FBBC05" d="M143.919 54.376a11.244 11.244 0 0 1-.609-3.614c0-1.26.223-2.478.588-3.615l-.01-.242-5.711-4.435-.187.089a18.285 18.285 0 0 0-1.949 8.203c0 2.944.71 5.725 1.949 8.203l5.929-4.59Z"/><path fill="#EB4335" d="M154.315 39.553c3.431 0 5.746 1.483 7.066 2.721l5.157-5.035c-3.167-2.945-7.289-4.752-12.223-4.752-7.147 0-13.32 4.102-16.325 10.071l5.908 4.59c1.483-4.407 5.584-7.595 10.417-7.595Z"/></svg>