<svg xmlns="http://www.w3.org/2000/svg" width="200" height="187" fill="none"><path fill="#FEBC00" d="M196.667 153.333H3.333A3.334 3.334 0 0 1 0 150V3.333A3.333 3.333 0 0 1 3.333 0h193.334A3.333 3.333 0 0 1 200 3.333V150a3.333 3.333 0 0 1-3.333 3.333Z"/><path fill="#F74E0C" d="m78.61 146.667-19.223 18.916a3.509 3.509 0 0 0-.897 3.537 3.586 3.586 0 0 0 2.747 2.447l10.333 2 2.114 10.256a3.555 3.555 0 0 0 2.49 2.687 3.63 3.63 0 0 0 3.583-.883l21.91-21.567a32.394 32.394 0 0 1-23.057-17.393Z"/><path fill="#F74E0C" d="m121.39 146.667 19.223 18.916a3.506 3.506 0 0 1-.138 5.14 3.596 3.596 0 0 1-1.712.844l-10.333 2-2.097 10.26a3.558 3.558 0 0 1-2.49 2.686 3.628 3.628 0 0 1-3.583-.883l-21.927-21.57a32.395 32.395 0 0 0 23.057-17.393Z"/><path fill="#FDFEFF" d="M183.333 140H16.667a3.334 3.334 0 0 1-3.334-3.333v-120a3.333 3.333 0 0 1 3.334-3.334h166.666a3.333 3.333 0 0 1 3.334 3.334v120a3.334 3.334 0 0 1-3.334 3.333Z"/><path fill="#FF9A00" d="M63.504 140a36.335 36.335 0 0 0 3.876 13.333h65.24A36.322 36.322 0 0 0 136.497 140H63.503Z"/><path fill="#DFEAEF" d="M136.667 136.667a36.667 36.667 0 1 0-73.334 0c0 1.126.07 2.233.17 3.333h73c.094-1.1.164-2.207.164-3.333ZM20 136.667v-120a3.333 3.333 0 0 1 3.333-3.334h-6.666a3.333 3.333 0 0 0-3.334 3.334v120A3.333 3.333 0 0 0 16.667 140h6.666A3.334 3.334 0 0 1 20 136.667Z"/><path fill="#F74E0C" d="M100 166.667a30.004 30.004 0 0 1-27.716-18.52A30 30 0 1 1 130 136.667a30.031 30.031 0 0 1-30 30Z"/><path fill="#CC2600" d="M106.667 160a29.942 29.942 0 0 1-26.735-16.348 29.947 29.947 0 0 1 2.481-31.239 29.97 29.97 0 0 0-3.639 45.48 29.976 29.976 0 0 0 23.58 8.681 29.965 29.965 0 0 0 21.899-12.321A29.805 29.805 0 0 1 106.667 160Z"/><path fill="#FEBC00" d="M100 150c7.364 0 13.333-5.969 13.333-13.333s-5.969-13.334-13.333-13.334-13.333 5.97-13.333 13.334S92.637 150 100 150Z"/><path fill="#FF9A00" d="M106.667 143.333A13.335 13.335 0 0 1 93.333 130a13.215 13.215 0 0 1 1.2-5.467 13.318 13.318 0 0 0 7.859 25.248 13.31 13.31 0 0 0 9.741-7.648 13.203 13.203 0 0 1-5.466 1.2Z"/><g clip-path="url(#a)"><path fill="#A435F0" d="M53.328 33.61 42.452 27.33 31.579 33.61V27.33l10.874-6.278L53.33 27.33l-.002 6.279Z"/><path fill="#181820" d="M31.579 38.882h5.697v13.84c0 3.577 2.67 5.32 5.177 5.32 2.53 0 5.18-1.79 5.18-5.367V38.882h5.697v14.17c0 3.295-1.036 5.837-3.107 7.58-2.073 1.741-4.661 2.59-7.817 2.59-3.154 0-5.743-.847-7.767-2.59-2.025-1.742-3.06-4.19-3.06-7.438V38.882Zm71 17.202c-1.725 1.535-3.689 2.287-5.929 2.287-4.087 0-6.827-2.328-7.136-5.933h18.405s.124-1.164.124-2.257c0-3.39-1.083-6.215-3.297-8.521-2.164-2.307-4.987-3.437-8.426-3.437-3.623 0-6.59 1.13-8.945 3.437-2.307 2.306-3.483 5.318-3.483 9.086v.186c0 3.72 1.176 6.686 3.483 8.9 2.306 2.211 5.367 3.341 9.086 3.341 4.325 0 7.767-1.706 10.349-4.647l-4.231-2.442ZM91.752 44.53c1.27-.99 2.825-1.506 4.567-1.506 1.647 0 3.012.517 4.19 1.554 1.124.944 1.731 2.104 1.784 3.437H89.659c.183-1.378.88-2.54 2.095-3.483l-.002-.002Zm68.171 21.84c-2.312 5.457-4.73 7.313-8.437 7.313h-2.57v-5.05h2.078c1.275 0 2.461-.48 3.591-3.086l1.13-2.61-9.746-24.056h5.791l6.921 17.326 7.11-17.326h5.789l-11.657 27.49ZM75.506 29.797v11.234c-1.867-1.672-4.77-2.667-7.579-2.667-3.343 0-6.167 1.176-8.474 3.576-2.26 2.354-3.39 5.272-3.39 8.803 0 3.533 1.13 6.45 3.39 8.851 2.307 2.355 5.132 3.533 8.474 3.533 3.855 0 6.291-1.516 7.58-2.703v2.184h5.65v-32.81h-5.65Zm-1.695 26.127c-1.365 1.365-3.107 2.073-5.132 2.073-2.024 0-3.671-.708-5.037-2.073-1.315-1.365-1.976-3.107-1.976-5.178 0-2.073.66-3.814 1.976-5.18 1.366-1.365 3.013-2.07 5.038-2.07 2.024 0 3.766.705 5.131 2.07 1.412 1.366 2.12 3.107 2.12 5.18 0 2.071-.708 3.813-2.12 5.178Zm63.375-17.512c-4.291 0-6.522 1.78-8.05 3.495-.611-1.165-2.333-3.495-6.354-3.495-3.4 0-5.403 1.718-6.403 2.941v-2.468h-5.6v23.727h5.6V48.957c0-3.201 1.979-5.508 4.613-5.508 2.686 0 4.239 2.025 4.239 5.273V62.61h5.602V48.957c0-3.248 1.929-5.508 4.706-5.508 2.684 0 4.237 2.025 4.237 5.27v13.89h5.65V47.92c0-6.186-3.325-9.508-8.24-9.508v-.001Z"/></g><path fill="#DFEAEF" d="M146.667 80H100v6.667h46.667V80ZM146.667 93.333H120V100h26.667v-6.667Z"/><defs><clipPath id="a"><path fill="#fff" d="M31.579 21.053h140.867v52.632H31.579z"/></clipPath></defs></svg>